<?xml version="1.0" standalone="no"?>
<!DOCTYPE svg PUBLIC "-//W3C//DTD SVG 1.1//EN" "http://www.w3.org/Graphics/SVG/1.1/DTD/svg11.dtd" >
<svg xmlns="http://www.w3.org/2000/svg">
<metadata>
Created by FontPrep 20130207 at Wed Dec 14 18:03:25 2016
 By Dima Tsoy
Copyright(C)1996; Type Market Ltd. Moscow, 119136, Box 20; phone:(095)1427712; Created by S. Shanovich
</metadata>
<defs>
<font id="c1cde7b9a13b50fe7994248c579e3bde" horiz-adv-x='1024' >
  <font-face 
    font-family="K_Helios-Thin"
    font-weight="100"
    font-stretch="normal"
    units-per-em="2048"
    panose-1="2 0 0 0 0 0 0 0 0 0"
    ascent="1638"
    descent="-410"
    x-height="1075"
    cap-height="1489"
    bbox="-117 -492 2224 1898"
    underline-thickness="43"
    underline-position="-170"
    unicode-range="U+0020-2122"
  />
<missing-glyph horiz-adv-x="1024" 
 />
    <glyph glyph-name=".notdef" horiz-adv-x="1024" 
 />
    <glyph glyph-name=".null" horiz-adv-x="0" 
 />
    <glyph glyph-name="nonmarkingreturn" horiz-adv-x="681" 
 />
    <glyph glyph-name="space" unicode=" " horiz-adv-x="536" 
 />
    <glyph glyph-name="space" unicode="&#xa0;" horiz-adv-x="536" 
 />
    <glyph glyph-name="exclam" unicode="!" horiz-adv-x="636" 
d="M287 0v182h69v-182h-69zM297 371l-18 1116h75l-8 -1116h-49z" />
    <glyph glyph-name="quotedbl" unicode="&#x22;" horiz-adv-x="534" 
d="M360 1448h72v-557h-72v557zM102 1448h72v-557h-72v557z" />
    <glyph glyph-name="numbersign" unicode="#" horiz-adv-x="1591" 
d="M717 881l-103 -295h275l102 295h-274zM827 1468h99l-183 -514h277l182 514h94l-178 -514h328l-23 -73h-336l-102 -295h361l-23 -74h-362l-181 -510h-98l182 510h-278l-183 -510h-94l180 510h-344l23 74h346l107 295h-377l22 73h379z" />
    <glyph glyph-name="dollar" unicode="$" 
d="M915 359q0 134 -86 212t-268 115v-647q172 16 263 101t91 219zM500 -172v143q-197 18 -302 135t-106 316v6h66q6 -348 342 -389v661q-190 50 -280 144t-91 253q0 159 100 258t271 99v92h61v-92q185 -2 287 -95t104 -263h-59q-23 293 -326 293h-6v-633q426 -74 426 -389
q0 -365 -426 -396v-143h-61zM500 770v619q-144 -4 -224 -81t-80 -208t74 -209q72 -78 230 -121z" />
    <glyph glyph-name="percent" unicode="%" horiz-adv-x="1505" 
d="M852 284q0 -106 75 -180t179 -74t178 74t74 178t-74 179q-74 74 -179 74t-179 -73t-74 -178zM788 283q0 131 92 223t225 92q132 0 224 -92t92 -223t-92 -223t-223 -93q-130 1 -224 93t-94 223zM303 -33l825 1522h72l-827 -1522h-70zM84 1172q0 132 92 224t223 93
q131 0 223 -92q92 -93 93 -225q0 -132 -91 -224q-92 -92 -224 -92t-224 92t-92 224zM147 1170q0 -105 74 -179q74 -73 178 -73t181 73q76 74 75 178q0 104 -74 179q-75 74 -181 74t-179 -74q-74 -73 -74 -178z" />
    <glyph glyph-name="ampersand" unicode="&#x26;" horiz-adv-x="1259" 
d="M569 -43q-205 0 -331 124t-125 316q0 299 370 465q-178 217 -178 343t83 204t211 78t208 -78t80 -203q0 -231 -299 -366l424 -529q80 160 80 359h63q-4 -250 -98 -412l209 -258h-86l-162 197q-195 -240 -449 -240zM182 399q0 -159 108 -269t261 -110q262 0 422 236
l-447 551q-344 -121 -344 -408zM823 1206q0 98 -65 160q-66 61 -162 61t-160 -60t-63 -146q0 -142 174 -332q276 119 276 317z" />
    <glyph glyph-name="quotesingle" unicode="'" horiz-adv-x="278" 
d="M104 1448h70v-557h-70v557z" />
    <glyph glyph-name="parenleft" unicode="(" horiz-adv-x="595" 
d="M201 529q0 507 295 952h73q-301 -427 -301 -943t322 -995h-70q-319 479 -319 986z" />
    <glyph glyph-name="parenright" unicode=")" horiz-adv-x="595" 
d="M336 540q0 514 -301 941h74q295 -443 295 -949t-322 -989h-70q324 483 324 997z" />
    <glyph glyph-name="asterisk" unicode="*" horiz-adv-x="1032" 
d="M348 903l-53 41l180 225l-264 72l25 72l253 -94l-8 268h70l-8 -268l252 94l26 -72l-264 -72l178 -225l-51 -41l-170 232z" />
    <glyph glyph-name="plus" unicode="+" horiz-adv-x="1722" 
d="M831 1233h62v-586h573v-61h-573v-586h-62v586h-575v61h575v586z" />
    <glyph glyph-name="comma" unicode="," horiz-adv-x="536" 
d="M137 -217l148 395h71l-147 -395h-72z" />
    <glyph glyph-name="hyphen" unicode="-" horiz-adv-x="798" 
d="M143 647h512v-45h-512v45z" />
    <glyph glyph-name="hyphen" unicode="&#xad;" horiz-adv-x="798" 
d="M143 647h512v-45h-512v45z" />
    <glyph glyph-name="period" unicode="." horiz-adv-x="536" 
d="M236 0v178h65v-178h-65z" />
    <glyph glyph-name="slash" unicode="/" horiz-adv-x="602" 
d="M557 1526h72l-586 -1700h-72z" />
    <glyph glyph-name="zero" unicode="0" 
d="M152 702q0 -332 101 -506t287 -176q186 0 287 174t101 508t-100 507t-287 173q-185 0 -287 -174t-102 -506zM82 702q0 360 120 552t337 192t338 -192t121 -552t-122 -552q-120 -192 -337 -193q-217 1 -337 193t-120 552z" />
    <glyph glyph-name="one" unicode="1" horiz-adv-x="1077" 
d="M565 0v1227q-125 -143 -342 -144h-18v60q319 6 360 260h68v-1403h-68z" />
    <glyph glyph-name="two" unicode="2" 
d="M104 0v100q0 141 50 219q81 132 425 331q162 93 216 151q100 102 100 252q0 149 -90 237t-244 88t-249 -94t-95 -258v-22h-72v18q0 196 115 308t300 112t297 -106t112 -273q0 -166 -82 -261q-83 -95 -301 -224q-218 -128 -318 -226t-100 -231q0 -39 4 -60h789v-61h-857z
" />
    <glyph glyph-name="three" unicode="3" 
d="M870 1080q0 142 -87 220t-245 78t-247 -92q-90 -92 -90 -256v-10h-64v6q0 200 110 308t296 108q187 0 293 -97t106 -239t-64 -235q-65 -93 -176 -128q133 -29 208 -123t75 -229q0 -193 -127 -311t-331 -119q-203 0 -317 120t-114 335v10h70v-6q0 -188 95 -290t265 -101
q170 0 279 98t108 254q0 328 -434 328h-43v59l49 -2q184 0 285 86q100 86 100 228z" />
    <glyph glyph-name="four" unicode="4" 
d="M758 0v373h-660v67l666 963h59v-967h160v-63h-160v-373h-65zM760 436v852l-592 -852h592z" />
    <glyph glyph-name="five" unicode="5" 
d="M909 424q0 182 -104 288t-275 107q-205 0 -325 -149h-55l116 733h656v-62h-603l-88 -563q121 100 313 100t314 -125q122 -126 121 -334q0 -208 -124 -335q-125 -127 -319 -127q-194 1 -306 107t-130 296h66q33 -338 367 -340q167 0 272 111q104 111 104 293z" />
    <glyph glyph-name="six" unicode="6" 
d="M911 436q0 194 -96 304t-254 110t-256 -113t-98 -301t95 -300t253 -112t257 110q99 109 99 302zM168 684q0 -68 2 -104q39 158 142 244t251 87q188 0 304 -128t116 -346t-119 -349t-299 -131q-467 0 -467 711q0 774 492 774q162 0 260 -91t115 -257h-66q-41 283 -321 282
q-410 0 -410 -692z" />
    <glyph glyph-name="seven" unicode="7" 
d="M121 1337v66h837v-68q-436 -522 -571 -1335h-68q104 745 555 1337h-753z" />
    <glyph glyph-name="eight" unicode="8" 
d="M539 735q-175 0 -275 -89t-100 -250t104 -263t270 -102t272 102q105 102 105 262t-101 250t-275 90zM223 1089q0 -132 87 -212q86 -80 228 -80t230 81t88 211q0 129 -87 211t-230 82t-230 -80q-86 -81 -86 -213zM150 1083q0 162 107 262q108 99 284 99t281 -98t106 -263
q0 -215 -213 -313q272 -88 272 -371q0 -201 -124 -321t-325 -119q-202 0 -324 121t-122 311q1 285 273 379q-215 92 -215 313z" />
    <glyph glyph-name="nine" unicode="9" 
d="M168 963q0 -193 96 -304t254 -111t257 114q99 113 99 301t-96 300q-96 111 -254 111t-257 -109t-99 -302zM516 487q-188 0 -303 128q-115 127 -115 347t118 350t298 130q469 0 469 -711q0 -774 -494 -774q-162 0 -260 91t-114 257h65q41 -283 322 -282q410 0 409 692
q0 68 -2 104q-39 -158 -142 -245t-251 -87z" />
    <glyph glyph-name="colon" unicode=":" horiz-adv-x="585" 
d="M258 827v179h68v-179h-68zM258 0v178h68v-178h-68z" />
    <glyph glyph-name="semicolon" unicode=";" horiz-adv-x="587" 
d="M281 827v181h67v-181h-67zM131 -217l145 395h74l-149 -395h-70z" />
    <glyph glyph-name="semicolon" unicode="&#x37e;" horiz-adv-x="587" 
d="M281 827v181h67v-181h-67zM131 -217l145 395h74l-149 -395h-70z" />
    <glyph glyph-name="less" unicode="&#x3c;" horiz-adv-x="1722" 
d="M1456 1122v-69l-1079 -437l1079 -436v-69l-1190 485v41z" />
    <glyph glyph-name="equal" unicode="=" horiz-adv-x="1722" 
d="M256 469h1210v-61h-1210v61zM256 827h1210v-61h-1210v61z" />
    <glyph glyph-name="greater" unicode="&#x3e;" horiz-adv-x="1722" 
d="M266 1122l1190 -485v-41l-1190 -485v69l1077 436l-1077 437v69z" />
    <glyph glyph-name="question" unicode="?" horiz-adv-x="956" 
d="M416 0v178h80v-178h-80zM825 1153q0 143 -90 221t-256 78t-257 -98t-91 -281v-8h-68q0 215 114 335q113 120 305 120t302 -98t111 -261q0 -123 -60 -209t-131 -151q-71 -64 -81 -74q-97 -94 -113 -171t-23 -189h-65q4 205 45 274q42 69 81 109t108 104t119 133
q50 70 50 166z" />
    <glyph glyph-name="at" unicode="@" horiz-adv-x="2068" 
d="M913 131q-317 0 -317 326q0 231 137 390t332 159t256 -179l63 138h66l-139 -553q-25 -98 -25 -121q0 -96 127 -96q154 0 270 127q80 84 127 206t48 258q0 270 -204 442t-541 171q-337 0 -568 -191q-326 -262 -326 -694q0 -330 225 -530q224 -200 584 -201q360 0 651 194
l23 -34q-290 -217 -662 -217t-610 182q-301 227 -301 622q0 330 199 570q293 358 796 358q336 0 555 -168q260 -199 260 -506q0 -348 -241 -540q-141 -111 -305 -111q-190 0 -191 141q0 15 4 48q-47 -90 -126 -140t-167 -51zM1059 942q-158 0 -264 -141t-107 -350
q0 -121 60 -189t172 -68q110 0 198 76q88 74 121 199l66 262q-47 211 -246 211z" />
    <glyph glyph-name="A" unicode="A" horiz-adv-x="1187" 
d="M-12 0l575 1489h78l565 -1489h-67l-193 508h-694l-195 -508h-69zM276 569h646l-320 838z" />
    <glyph glyph-name="B" unicode="B" horiz-adv-x="1277" 
d="M170 0v1489h405q276 0 386 -66q160 -92 159 -303q0 -121 -66 -208t-188 -132q330 -63 330 -383q0 -104 -45 -190t-123 -133q-117 -74 -405 -74h-453zM240 801h346q236 0 350 78q114 77 115 247q0 170 -112 235t-357 64h-342v-624zM240 63h368q244 0 332 36t136 117
t48 194q0 180 -124 259t-390 79h-370v-685z" />
    <glyph glyph-name="C" unicode="C" horiz-adv-x="1406" 
d="M104 744q0 368 168 573t463 205q227 0 383 -129t176 -336h-69q-33 189 -164 295t-338 106q-247 0 -397 -190t-150 -526t144 -523q144 -188 382 -188t377 124t152 339h67q-14 -242 -170 -383t-405 -142q-291 0 -455 204q-164 203 -164 571z" />
    <glyph glyph-name="D" unicode="D" horiz-adv-x="1425" 
d="M242 63h286q303 0 443 74q274 147 274 606q0 379 -196 553q-86 78 -206 103t-315 24h-286v-1360zM170 0v1489h342q334 0 477 -74q330 -162 330 -672q0 -254 -85 -425t-245 -244q-150 -74 -477 -74h-342z" />
    <glyph glyph-name="E" unicode="E" horiz-adv-x="1173" 
d="M170 0v1489h907v-68h-837v-614h766v-64h-766v-675h858v-68h-928z" />
    <glyph glyph-name="F" unicode="F" horiz-adv-x="1081" 
d="M170 0v1489h868v-68h-798v-614h706v-64h-706v-743h-70z" />
    <glyph glyph-name="G" unicode="G" horiz-adv-x="1468" 
d="M1294 0v293q-162 -326 -540 -326q-297 0 -471 208t-174 568q0 359 173 569t472 210q246 0 398 -120t181 -335h-69q-37 187 -169 289t-341 102q-262 0 -418 -191t-156 -523t156 -523q156 -190 410 -190t398 148t144 407v65h-491v62h557v-713h-60z" />
    <glyph glyph-name="H" unicode="H" horiz-adv-x="1417" 
d="M168 0v1489h72v-664h940v664h69v-1489h-69v764h-940v-764h-72z" />
    <glyph glyph-name="I" unicode="I" horiz-adv-x="428" 
d="M180 0v1489h70v-1489h-70z" />
    <glyph glyph-name="J" unicode="J" horiz-adv-x="978" 
d="M458 29q164 0 230 102t66 324v1034h69v-1055q0 -238 -90 -354q-89 -116 -277 -115q-188 -1 -283 105t-95 307q0 55 2 88h65l-2 -62q0 -190 75 -282t240 -92z" />
    <glyph glyph-name="K" unicode="K" horiz-adv-x="1202" 
d="M168 0v1489h72v-838l825 838h88l-588 -596l678 -893h-84l-639 844l-280 -285v-559h-72z" />
    <glyph glyph-name="L" unicode="L" horiz-adv-x="1052" 
d="M172 0v1489h70v-1421h788v-68h-858z" />
    <glyph glyph-name="M" unicode="M" horiz-adv-x="1599" 
d="M170 0v1489h98l533 -1401l532 1401h97v-1489h-62v1401l-537 -1401h-65l-535 1401v-1401h-61z" />
    <glyph glyph-name="N" unicode="N" horiz-adv-x="1409" 
d="M168 0v1489h72l931 -1370v1370h70v-1489h-70l-933 1368v-1368h-70z" />
    <glyph glyph-name="O" unicode="O" horiz-adv-x="1533" 
d="M180 743q0 -334 156 -523t430 -189t431 189t157 523q0 335 -157 525t-431 190t-430 -190t-156 -525zM109 743q0 363 176 571t482 208t482 -208t176 -570t-176 -570q-176 -207 -483 -207t-482 207t-175 569z" />
    <glyph glyph-name="P" unicode="P" horiz-adv-x="1189" 
d="M575 1489q535 1 535 -381q0 -192 -111 -307q-71 -69 -167 -91t-263 -22h-329v-688h-70v1489h405zM524 1425h-284v-675h282q258 0 341 36t129 120q46 83 46 196q0 188 -149 270q-97 53 -365 53z" />
    <glyph glyph-name="Q" unicode="Q" horiz-adv-x="1533" 
d="M109 746q0 362 175 569t481 207t483 -205t177 -557q0 -420 -231 -645l201 -164l-43 -49l-209 172q-147 -106 -391 -107q-297 0 -470 208q-173 209 -173 571zM1354 743q0 333 -157 525t-431 192t-430 -191t-156 -527t155 -522q155 -187 431 -187q199 0 324 84l-175 143
l41 47l189 -149q209 193 209 585z" />
    <glyph glyph-name="R" unicode="R" horiz-adv-x="1286" 
d="M170 0v1489h494q264 0 386 -89t121 -300q0 -285 -268 -367q186 -37 209 -256q6 -66 12 -200t20 -190q13 -56 36 -87h-76q-27 35 -31 76q-4 40 -6 54t-3 39q-1 26 -4 71t-3 59t-2 50t-3 45t-3 38t-5 38q-2 9 -6 33t-8 34t-12 33t-31 48q-74 86 -289 87h-458v-705h-70z
M240 766h458q199 0 301 84q103 84 103 238t-84 241q-59 61 -136 77t-218 17h-424v-657z" />
    <glyph glyph-name="S" unicode="S" horiz-adv-x="1185" 
d="M580 1522q207 0 340 -122t133 -315h-66q0 173 -115 275t-295 102t-280 -90t-100 -223t92 -217q51 -48 119 -70t212 -62q146 -40 203 -63q141 -53 206 -131t65 -211q0 -193 -133 -311t-355 -117q-222 0 -359 129q-136 129 -153 359h68q12 -197 131 -311t309 -114t306 98
q116 97 116 249q0 121 -54 189t-177 114q-55 20 -195 59t-186 56q-125 43 -176 92q-104 96 -104 258q0 161 120 269q121 108 328 108z" />
    <glyph glyph-name="T" unicode="T" horiz-adv-x="1054" 
d="M498 0v1423h-471v66h1003v-66h-463v-1423h-69z" />
    <glyph glyph-name="U" unicode="U" horiz-adv-x="1386" 
d="M158 1489h69v-936q0 -258 120 -390t346 -132t347 134t121 388v936h70v-969q1 -260 -143 -406t-396 -146t-393 144q-141 146 -141 408v969z" />
    <glyph glyph-name="V" unicode="V" horiz-adv-x="1087" 
d="M510 0l-516 1489h74l477 -1387l475 1387h74l-519 -1489h-65z" />
    <glyph glyph-name="W" unicode="W" horiz-adv-x="1703" 
d="M414 0l-398 1489h70l365 -1364l360 1364h84l360 -1364l363 1364h70l-398 -1489h-69l-369 1391l-369 -1391h-69z" />
    <glyph glyph-name="X" unicode="X" horiz-adv-x="1097" 
d="M2 0l506 762l-483 727h81l443 -670l440 670h78l-477 -725l506 -764h-80l-471 702l-465 -702h-78z" />
    <glyph glyph-name="Y" unicode="Y" horiz-adv-x="1097" 
d="M514 0v659l-512 830h80l469 -760l463 760h80l-512 -834v-655h-68z" />
    <glyph glyph-name="Z" unicode="Z" horiz-adv-x="1095" 
d="M18 0v70l957 1353h-875v66h949v-72l-955 -1354h981v-63h-1057z" />
    <glyph glyph-name="bracketleft" unicode="[" horiz-adv-x="624" 
d="M588 -426h-350v1913h350v-64h-277v-1785h277v-64z" />
    <glyph glyph-name="backslash" unicode="\" horiz-adv-x="602" 
d="M-29 1528h72l586 -1700h-72z" />
    <glyph glyph-name="bracketright" unicode="]" horiz-adv-x="624" 
d="M45 -426v64h277v1785h-277v64h350v-1913h-350z" />
    <glyph glyph-name="asciicircum" unicode="^" horiz-adv-x="2068" 
d="M983 1470h98l555 -557h-110l-492 488l-493 -488h-111z" />
    <glyph glyph-name="underscore" unicode="_" horiz-adv-x="1032" 
d="M0 -430h1032v-62h-1032v62z" />
    <glyph glyph-name="grave" unicode="`" horiz-adv-x="1034" 
d="M633 1208h-66l-256 332h111z" />
    <glyph glyph-name="a" unicode="a" horiz-adv-x="1048" 
d="M139 291q0 -121 70 -186t201 -64q182 0 307 104q66 57 86 126t20 188v157q-25 -35 -258 -62t-330 -85q-96 -57 -96 -178zM823 817q-1 225 -299 225q-152 0 -243 -70q-92 -70 -101 -196h-61q6 150 115 238q110 88 294 88q229 0 314 -125q47 -63 47 -221v-523
q0 -106 17 -146t77 -40q10 0 39 4v-55l-57 -6q-74 0 -108 47t-34 147q-63 -98 -175 -153t-256 -55t-232 83t-88 225t110 221t404 108q140 14 182 31t49 39q6 21 6 44v90z" />
    <glyph glyph-name="b" unicode="b" horiz-adv-x="1183" 
d="M614 1040q-186 0 -296 -134t-109 -370q-1 -237 109 -371t296 -134t297 134t111 371q0 236 -111 370t-297 134zM143 0v1487h66v-658q113 270 405 271q217 0 345 -152t128 -414q-1 -262 -127 -413q-126 -150 -346 -150q-283 0 -405 258v-229h-66z" />
    <glyph glyph-name="c" unicode="c" horiz-adv-x="1075" 
d="M92 537q0 263 127 413t344 150q170 0 278 -90t130 -248h-66q-20 129 -113 204t-229 74q-186 0 -296 -133q-109 -133 -109 -371t110 -370q110 -133 295 -133q141 0 240 86q98 86 117 229h61q-18 -174 -133 -274q-114 -100 -308 -100t-321 150q-127 151 -127 413z" />
    <glyph glyph-name="d" unicode="d" horiz-adv-x="1183" 
d="M975 536q0 236 -110 370t-296 134t-297 -134q-110 -134 -110 -370t110 -371q110 -134 297 -134q186 0 296 134t110 371zM1038 1487v-1487h-63v240q-104 -268 -406 -269q-219 0 -346 150t-127 413q0 262 128 414t345 152q145 0 251 -70t155 -190v647h63z" />
    <glyph glyph-name="e" unicode="e" horiz-adv-x="1083" 
d="M926 592q0 207 -102 328q-102 120 -270 120q-166 0 -274 -118t-120 -330h766zM90 537q0 263 124 413t332 150t328 -139t121 -390v-39h-837v-16q0 -221 108 -352t279 -131q133 0 231 76t135 208h64q-35 -155 -153 -249t-277 -95q-207 0 -331 151t-124 413z" />
    <glyph glyph-name="f" unicode="f" horiz-adv-x="501" 
d="M274 1227v-152h181v-61h-181v-1014h-63v1014h-150v61h150v150q0 154 40 213t159 59q31 0 49 -2v-55l-37 2q-92 0 -120 -45t-28 -170z" />
    <glyph glyph-name="g" unicode="g" horiz-adv-x="1183" 
d="M975 539q0 239 -110 371t-296 132t-297 -133q-110 -133 -110 -371t110 -370q110 -133 297 -133q186 0 296 133t110 371zM565 -27q-215 0 -342 151t-127 415q0 263 127 413t346 150q147 0 255 -71t151 -193v237h63v-1012q0 -104 -12 -173t-55 -132q-127 -186 -430 -186
q-182 0 -291 87t-111 230h62q6 -121 99 -189t257 -69q266 0 371 181q39 70 45 190q2 41 2 123v111q-53 -125 -159 -194t-251 -69z" />
    <glyph glyph-name="h" unicode="h" 
d="M143 0v1489h66v-590q106 201 362 201q369 0 369 -387v-713h-66v692q0 180 -70 264q-71 84 -240 84t-267 -110q-57 -64 -73 -142t-15 -213v-575h-66z" />
    <glyph glyph-name="i" unicode="i" horiz-adv-x="362" 
d="M150 0v1075h65v-1075h-65zM150 1315v174h65v-174h-65z" />
    <glyph glyph-name="j" unicode="j" horiz-adv-x="360" 
d="M150 1313v174h65v-174h-65zM150 1073h65v-1241q0 -152 -36 -207t-156 -55h-39v63h24q98 0 120 42t22 180v1218z" />
    <glyph glyph-name="k" unicode="k" horiz-adv-x="948" 
d="M143 0v1489h66v-1026l618 612h82l-391 -391l453 -684h-74l-424 637l-264 -254v-383h-66z" />
    <glyph glyph-name="l" unicode="l" horiz-adv-x="362" 
d="M150 0v1489h65v-1489h-65z" />
    <glyph glyph-name="m" unicode="m" horiz-adv-x="1689" 
d="M143 0v1075h66v-176q106 201 336 201q123 0 206 -58t111 -163q111 221 350 221q338 0 338 -387v-713h-65v645q0 180 -30 250q-31 69 -95 107t-150 38q-160 0 -249 -110q-53 -63 -67 -140t-15 -210v-580h-64v645q0 180 -30 250q-31 69 -95 107t-149 38q-158 0 -252 -110
q-51 -63 -65 -140t-15 -210v-580h-66z" />
    <glyph glyph-name="n" unicode="n" 
d="M143 0v1075h66v-176q106 201 362 201q369 0 369 -387v-713h-66v692q0 180 -70 264q-71 84 -240 84t-267 -110q-57 -64 -73 -142t-15 -213v-575h-66z" />
    <glyph glyph-name="o" unicode="o" horiz-adv-x="1128" 
d="M158 537q0 -238 110 -371t295 -133q186 0 297 133t111 371q0 239 -111 371t-297 132q-185 0 -295 -132t-110 -371zM92 537q0 263 127 413t344 150t345 -151t128 -413t-128 -412q-128 -151 -345 -151t-344 151t-127 413z" />
    <glyph glyph-name="p" unicode="p" horiz-adv-x="1183" 
d="M614 1040q-186 0 -296 -134t-109 -370q-1 -237 109 -370t296 -133t297 133t111 370q0 236 -111 370t-297 134zM143 -426v1501h66v-246q104 270 405 271q218 0 346 -150t128 -412t-129 -414q-128 -151 -345 -151q-147 0 -252 68q-104 68 -153 195v-662h-66z" />
    <glyph glyph-name="q" unicode="q" horiz-adv-x="1183" 
d="M569 1040q-187 0 -297 -134t-110 -372q0 -237 110 -370t297 -133q186 0 296 133t110 370q0 238 -110 372t-296 134zM569 -29q-217 0 -345 151t-128 414q0 264 128 414t345 150q301 0 406 -273v248h63v-1501h-63v659q-49 -127 -153 -195t-253 -67z" />
    <glyph glyph-name="r" unicode="r" horiz-adv-x="544" 
d="M143 0v1075h66v-192q84 215 321 215v-66q-182 -8 -252 -127t-69 -383v-522h-66z" />
    <glyph glyph-name="s" unicode="s" horiz-adv-x="993" 
d="M131 818q0 120 101 201q102 81 262 81t257 -83t111 -226h-65q-35 250 -305 249q-131 0 -211 -61t-80 -151t54 -141q54 -50 196 -87q23 -6 51 -14t47 -13q186 -47 266 -109t80 -189t-108 -215q-109 -88 -281 -87t-281 93t-125 256h66q55 -285 344 -285q143 1 230 67
t87 177q0 78 -52 128t-144 75t-133 34q-174 41 -241 84q-20 13 -38 27q-88 69 -88 189z" />
    <glyph glyph-name="t" unicode="t" horiz-adv-x="501" 
d="M264 236q0 -112 9 -148q9 -35 27 -45t48 -10h111v-60h-111q-82 0 -116 46t-33 149v850h-189v57h189v293h65v-293h195v-57h-195v-782z" />
    <glyph glyph-name="u" unicode="u" 
d="M934 1075v-1075h-66v168q-104 -197 -360 -197q-369 0 -369 385v719h64v-698q1 -180 71 -262t242 -82t266 106q58 63 72 141t14 214v581h66z" />
    <glyph glyph-name="v" unicode="v" horiz-adv-x="917" 
d="M416 0l-400 1075h68l369 -997l383 997h67l-414 -1075h-73z" />
    <glyph glyph-name="w" unicode="w" horiz-adv-x="1382" 
d="M367 0l-340 1075h67l307 -973l256 973h60l262 -973l311 973h66l-342 -1075h-68l-260 958l-252 -958h-67z" />
    <glyph glyph-name="x" unicode="x" horiz-adv-x="847" 
d="M66 0h-76l393 555l-377 520h78l340 -467l332 467h75l-370 -520l397 -555h-76l-360 504z" />
    <glyph glyph-name="y" unicode="y" horiz-adv-x="903" 
d="M178 -430q-49 0 -76 12v64q43 -12 78 -13q92 0 139 123l93 236l-400 1083h64l370 -997l371 997h70l-467 -1237q-54 -144 -106 -206t-136 -62z" />
    <glyph glyph-name="z" unicode="z" horiz-adv-x="903" 
d="M35 0v78l745 936h-704v61h770v-78l-744 -936h766v-61h-833z" />
    <glyph glyph-name="braceleft" unicode="{" horiz-adv-x="1032" 
d="M233 571q143 0 201 68q57 68 58 227v240q0 221 63 304t262 83h35v-72h-39q-147 0 -193 -57t-47 -219v-244q1 -166 -37 -247t-157 -117q119 -37 157 -118t37 -247v-244q1 -162 47 -219t193 -57h39v-70h-35q-199 0 -262 82t-63 303v240q0 163 -58 229t-207 66l-47 -2v73
q18 -2 53 -2z" />
    <glyph glyph-name="bar" unicode="|" horiz-adv-x="1032" 
d="M479 1581h74v-2068h-74v2068z" />
    <glyph glyph-name="braceright" unicode="}" horiz-adv-x="1034" 
d="M543 207v-240q1 -221 -63 -303t-261 -82h-35v72h41q145 0 191 56q45 56 45 218v244q0 166 39 247t157 118q-119 37 -157 117t-39 247v244q0 162 -45 219t-193 57h-39v72h35q197 0 260 -83t64 -304v-240q0 -160 58 -228t202 -67q35 0 53 2v-73l-47 2q-147 0 -207 -67
t-59 -228z" />
    <glyph glyph-name="asciitilde" unicode="~" horiz-adv-x="1722" 
d="M1153 514q-121 0 -332 83q-33 13 -44 16t-39 13t-43 14q-15 3 -49 10t-75 7q-160 0 -391 -163v75q209 152 391 152q76 1 149 -25q72 -26 142 -51t137 -47t154 -23q162 0 391 162v-73q-211 -150 -391 -150z" />
    <glyph glyph-name="currency" unicode="&#xa4;" horiz-adv-x="1253" 
d="M629 1229q-139 -1 -237 -99t-99 -236q0 -138 98 -236q97 -98 237 -99q140 0 238 98q98 97 98 237t-98 238t-237 97zM628 1311q146 0 265 -94l207 208l61 -61l-209 -207q92 -117 92 -264t-92 -264l209 -207l-61 -62l-207 209q-117 -92 -265 -92t-266 92l-208 -209l-60 62
l209 207q-92 117 -92 264t92 264l-209 207l60 61l208 -208q120 94 266 94z" />
    <glyph glyph-name="brokenbar" unicode="&#xa6;" horiz-adv-x="1032" 
d="M479 412h74v-764h-74v764zM479 1446h74v-764h-74v764z" />
    <glyph glyph-name="section" unicode="&#xa7;" horiz-adv-x="1034" 
d="M233 147v-28q0 -125 68 -194t194 -69q125 0 197 64q72 62 72 156t-40 145t-128 94l-270 134q-213 103 -213 289t196 284q-100 82 -100 208t85 208q86 82 232 82t230 -88t84 -252h-66q0 134 -64 206t-181 72q-115 0 -185 -63t-70 -155t52 -144q52 -53 163 -105l160 -76
q269 -123 269 -311t-199 -297q109 -80 109 -215t-91 -215q-89 -80 -241 -80t-239 80t-87 225q0 29 2 45h61zM856 588q0 164 -217 264l-274 127q-189 -77 -189 -233t166 -240l332 -162q94 54 138 112t44 132z" />
    <glyph glyph-name="copyright" unicode="&#xa9;" horiz-adv-x="1722" 
d="M862 1118q-137 0 -215 -104t-78 -288t81 -288q82 -104 198 -104t189 58t89 153h76q-10 -121 -108 -200t-254 -79t-258 123t-102 335t106 336t282 124q128 0 220 -70t106 -184h-82q-23 90 -88 139q-66 49 -162 49zM861 1395q-282 0 -470 -195q-201 -201 -201 -476
t199 -470q197 -201 471 -201t477 203q195 184 195 468t-195 474q-194 197 -476 197zM125 723q0 301 214 519t520 218t525 -215q213 -217 213 -523t-218 -520t-519 -214t-516 219q-219 215 -219 516z" />
    <glyph glyph-name="guillemotleft" unicode="&#xab;" horiz-adv-x="765" 
d="M348 211l-258 328l258 311h82l-252 -311l252 -328h-82zM600 211l-258 328l258 311h84l-254 -311l254 -328h-84z" />
    <glyph glyph-name="logicalnot" unicode="&#xac;" horiz-adv-x="1722" 
d="M256 862h1210v-506h-61v445h-1149v61z" />
    <glyph glyph-name="registered" unicode="&#xae;" horiz-adv-x="1722" 
d="M668 1094v-328h192q147 0 209 35q61 35 61 126t-65 129q-66 38 -203 38h-194zM580 1165h305q180 0 265 -56t85 -181q0 -88 -57 -148t-152 -71l195 -402h-107l-184 387h-262v-387h-88v858zM858 1395q-281 0 -469 -195q-199 -199 -199 -474t201 -472q197 -201 471 -201
t477 203q193 186 193 468t-197 474q-196 197 -477 197zM125 723q0 301 214 519t520 218t525 -213q213 -217 213 -523t-219 -521t-519 -215t-515 219q-219 215 -219 516z" />
    <glyph glyph-name="degree" unicode="&#xb0;" horiz-adv-x="681" 
d="M342 1411q-92 0 -157 -63q-65 -64 -65 -158t65 -158q65 -63 157 -63t156 64q63 65 63 157t-63 157q-64 64 -156 64zM341 1462q111 0 191 -80t80 -192t-78 -191t-194 -79q-115 0 -193 78t-77 192q0 116 80 194t191 78z" />
    <glyph glyph-name="plusminus" unicode="&#xb1;" horiz-adv-x="1722" 
d="M256 135h1210v-63h-1210v63zM831 1163h62v-360h573v-62h-573v-362h-62v362h-575v62h575v360z" />
    <glyph glyph-name="mu" unicode="&#xb5;" horiz-adv-x="1050" 
d="M768 113q0 -72 80 -72q23 0 37 2l-13 -63q-18 -4 -51 -5q-123 0 -123 115q0 23 11 78q-127 -205 -349 -205q-110 0 -184 55t-96 152l-125 -600h-72l320 1499h67l-123 -590q-23 -109 -22 -168q0 -133 68 -205q67 -72 195 -72t236 124q108 123 154 344l119 567h72
l-195 -897q-6 -31 -6 -59z" />
    <glyph glyph-name="mu" unicode="&#x3bc;" horiz-adv-x="1050" 
d="M768 113q0 -72 80 -72q23 0 37 2l-13 -63q-18 -4 -51 -5q-123 0 -123 115q0 23 11 78q-127 -205 -349 -205q-110 0 -184 55t-96 152l-125 -600h-72l320 1499h67l-123 -590q-23 -109 -22 -168q0 -133 68 -205q67 -72 195 -72t236 124q108 123 154 344l119 567h72
l-195 -897q-6 -31 -6 -59z" />
    <glyph glyph-name="paragraph" unicode="&#xb6;" horiz-adv-x="1032" 
d="M498 1495h436v-59h-135v-1436h-58v1436h-200v-1436h-58v791q-178 8 -281 104q-104 96 -104 251t109 252t291 97z" />
    <glyph glyph-name="periodcentered" unicode="&#xb7;" horiz-adv-x="536" 
d="M268 635q-29 0 -48 19t-19 47q0 27 20 47t48 20t47 -19q20 -19 20 -47t-20 -48q-20 -19 -48 -19z" />
    <glyph glyph-name="periodcentered" unicode="&#x2219;" horiz-adv-x="536" 
d="M268 635q-29 0 -48 19t-19 47q0 27 20 47t48 20t47 -19q20 -19 20 -47t-20 -48q-20 -19 -48 -19z" />
    <glyph glyph-name="guillemotright" unicode="&#xbb;" horiz-adv-x="765" 
d="M418 850l258 -330l-258 -309h-82l252 309l-252 330h82zM166 850l258 -330l-258 -309h-84l254 309l-254 330h84z" />
    <glyph glyph-name="afii10023" unicode="&#x401;" horiz-adv-x="1173" 
d="M750 1718v115h94v-115h-94zM430 1718v115h92v-115h-92zM170 0v1487h907v-68h-837v-614h766v-64h-766v-675h858v-66h-928z" />
    <glyph glyph-name="afii10051" unicode="&#x402;" horiz-adv-x="1597" 
d="M553 0h-70v1423h-471v66h1086v-66h-545v-669q188 61 399 61t358 -93q148 -93 148 -337q0 -201 -114 -306t-264 -105q-152 0 -277 44l26 56q78 -33 121 -40t119 -7q137 0 228 86t92 233q0 228 -119 318t-335 90t-382 -72v-682z" />
    <glyph glyph-name="afii10052" unicode="&#x403;" horiz-adv-x="1052" 
d="M520 1567l211 331h111l-256 -331h-66zM172 1489h858v-68h-788v-1421h-70v1489z" />
    <glyph glyph-name="afii10053" unicode="&#x404;" horiz-adv-x="1406" 
d="M897 825v-61h-717v-25q0 -334 144 -521t380 -187t375 124t152 339h67q-14 -242 -170 -383t-405 -142q-291 0 -455 204q-164 203 -164 571t168 573t463 205q227 0 383 -129t176 -336h-69q-33 189 -164 295t-349 106t-364 -167t-168 -466h717z" />
    <glyph glyph-name="afii10054" unicode="&#x405;" horiz-adv-x="1185" 
d="M580 1522q207 0 340 -122t133 -315h-66q0 173 -115 275t-295 102t-280 -90t-100 -223t92 -217q51 -48 119 -70t212 -62q146 -40 203 -63q141 -53 206 -131t65 -211q0 -193 -133 -311t-355 -117q-222 0 -359 129q-136 129 -153 359h68q12 -197 131 -311t309 -114t306 98
q116 97 116 249q0 121 -54 189t-177 114q-55 20 -195 59t-186 56q-125 43 -176 92q-104 96 -104 258q0 161 120 269q121 108 328 108z" />
    <glyph glyph-name="_0406h" unicode="&#x406;" horiz-adv-x="428" 
d="M180 0v1489h70v-1489h-70z" />
    <glyph glyph-name="afii10056" unicode="&#x407;" horiz-adv-x="428" 
d="M291 1667v174h69v-174h-69zM70 1667v174h69v-174h-69zM180 0v1489h70v-1489h-70z" />
    <glyph glyph-name="afii10057" unicode="&#x408;" horiz-adv-x="978" 
d="M458 29q164 0 230 102t66 324v1034h69v-1055q0 -238 -90 -354q-89 -116 -277 -115q-188 -1 -283 105t-95 307q0 55 2 88h65l-2 -62q0 -190 75 -282t240 -92z" />
    <glyph glyph-name="afii10058" unicode="&#x409;" horiz-adv-x="2158" 
d="M1204 739v-676h328q266 0 362 54q150 82 150 270q0 113 -46 196t-129 119t-339 37h-326zM266 616v873h938v-688h371q166 0 264 -23t166 -90q111 -110 111 -304t-131 -289t-404 -95h-444v1425h-801v-702q0 -723 -277 -723q-4 0 -90 6v72l88 -8q82 0 122 80q47 87 59 172
q28 195 28 294z" />
    <glyph glyph-name="afii10059" unicode="&#x40a;" horiz-adv-x="2240" 
d="M1577 63q266 0 362 54q150 82 150 270q0 113 -46 196t-124 117q-143 63 -342 64h-328v-701h328zM1626 0h-446v764h-940v-764h-72v1489h72v-664h940v664h69v-664h373q250 0 394 -106q144 -105 144 -317t-130 -307q-132 -95 -404 -95z" />
    <glyph glyph-name="afii10060" unicode="&#x40b;" horiz-adv-x="1597" 
d="M567 0h-69v1423h-471v66h1085v-66h-545v-669q188 61 400 61t359 -95t147 -335v-385h-68v379q0 375 -459 375q-213 0 -379 -72v-682z" />
    <glyph glyph-name="afii10061" unicode="&#x40c;" horiz-adv-x="1202" 
d="M543 1567l211 331h110l-256 -331h-65zM168 0v1489h72v-838l825 838h88l-588 -596l678 -893h-84l-639 844l-280 -285v-559h-72z" />
    <glyph glyph-name="afii10062" unicode="&#x40e;" horiz-adv-x="1097" 
d="M540 1626q208 0 226 215h61q-3 -125 -75 -199t-211 -74t-212 74t-75 199h61q17 -215 225 -215zM346 -35q-4 0 -78 8v64q123 -26 182 25q38 34 74 116l33 86l-555 1225h80l510 -1155l422 1155h80l-514 -1344q-40 -98 -94 -139t-140 -41z" />
    <glyph glyph-name="afii10145" unicode="&#x40f;" horiz-adv-x="1419" 
d="M170 0v1487h70v-1424h942v1424h67v-1487h-501v-375h-66v375h-512z" />
    <glyph glyph-name="afii10017" unicode="&#x410;" horiz-adv-x="1187" 
d="M-12 0l575 1489h78l565 -1489h-67l-193 508h-694l-195 -508h-69zM276 569h646l-320 838z" />
    <glyph glyph-name="afii10018" unicode="&#x411;" horiz-adv-x="1218" 
d="M604 0h-446v1489h909v-64h-840v-624h371q262 0 401 -90q139 -89 139 -305t-130 -311q-132 -95 -404 -95zM555 63q266 0 363 54q150 82 150 266t-97 270q-74 67 -253 81q-65 5 -165 5h-326v-676h328z" />
    <glyph glyph-name="afii10019" unicode="&#x412;" horiz-adv-x="1277" 
d="M170 0v1489h405q276 0 386 -66q160 -92 159 -303q0 -125 -72 -216t-214 -124q178 -14 270 -115t92 -268q0 -104 -45 -190t-123 -133q-117 -74 -405 -74h-453zM240 801h346q236 0 350 78q114 77 115 247q0 170 -112 235t-357 64h-342v-624zM240 63h368q244 0 332 36
t136 117t48 194q0 180 -124 259t-390 79h-370v-685z" />
    <glyph glyph-name="afii10020" unicode="&#x413;" horiz-adv-x="1052" 
d="M172 1489h858v-68h-788v-1421h-70v1489z" />
    <glyph glyph-name="afii10021" unicode="&#x414;" horiz-adv-x="1425" 
d="M53 63h115q88 113 125 272t37 472v680h919v-1424h144v-423h-66v360h-1206v-360h-68v423zM1180 1425h-781v-706q0 -219 -39 -395t-110 -261h930v1362z" />
    <glyph glyph-name="afii10022" unicode="&#x415;" horiz-adv-x="1173" 
d="M170 0v1489h907v-68h-837v-614h766v-64h-766v-675h858v-68h-928z" />
    <glyph glyph-name="afii10024" unicode="&#x416;" horiz-adv-x="1904" 
d="M987 0h-69v559l-248 268l-627 -827h-84l666 877l-576 612h88l781 -838v838h69v-838l780 838h88l-575 -612l666 -877h-84l-627 827l-248 -268v-559z" />
    <glyph glyph-name="afii10025" unicode="&#x417;" horiz-adv-x="1251" 
d="M502 748v53h84q229 0 342 92q112 92 112 244q0 153 -118 237t-297 84q-177 0 -307 -106t-138 -267h-65q10 185 152 311q143 126 363 126t350 -102t130 -290q0 -131 -82 -233t-225 -119q170 -23 269 -128q99 -104 99 -254t-75 -250q-76 -99 -191 -139t-266 -40
q-249 0 -399 129t-162 359h69q11 -195 145 -310t332 -115t325 78q149 86 149 285q0 166 -136 260t-378 95h-82z" />
    <glyph glyph-name="afii10026" unicode="&#x418;" horiz-adv-x="1409" 
d="M1241 0h-70v1368l-933 -1368h-70v1489h70v-1370l931 1370h72v-1489z" />
    <glyph glyph-name="afii10027" unicode="&#x419;" horiz-adv-x="1409" 
d="M416 1841h69q0 -215 220 -215q104 0 162 55t59 160h69q0 -113 -81 -193q-80 -80 -214 -81q-134 0 -210 74q-74 75 -74 200zM1241 0h-70v1366l-933 -1366h-70v1487h70v-1370l931 1370h72v-1487z" />
    <glyph glyph-name="afii10028" unicode="&#x41a;" horiz-adv-x="1202" 
d="M168 0v1489h72v-838l825 838h88l-588 -596l678 -893h-84l-639 844l-280 -285v-559h-72z" />
    <glyph glyph-name="afii10029" unicode="&#x41b;" horiz-adv-x="1374" 
d="M268 807v682h936v-1489h-67v1425h-799v-706q0 -265 -50 -469q-28 -114 -86 -182t-143 -68q-4 0 -90 6v72l88 -8q131 0 175 239q36 188 36 498z" />
    <glyph glyph-name="afii10030" unicode="&#x41c;" horiz-adv-x="1599" 
d="M170 0v1489h98l533 -1401l532 1401h97v-1489h-62v1401l-537 -1401h-65l-535 1401v-1401h-61z" />
    <glyph glyph-name="afii10031" unicode="&#x41d;" horiz-adv-x="1417" 
d="M168 0v1489h70v-664h942v664h69v-1489h-69v764h-942v-764h-70z" />
    <glyph glyph-name="afii10032" unicode="&#x41e;" horiz-adv-x="1533" 
d="M180 743q0 -334 156 -523t430 -189t431 189t157 523q0 335 -157 525t-431 190t-430 -190t-156 -525zM109 743q0 363 176 571t482 208t482 -208t176 -570t-176 -570q-176 -207 -483 -207t-482 207t-175 569z" />
    <glyph glyph-name="afii10033" unicode="&#x41f;" horiz-adv-x="1417" 
d="M168 0v1489h1081v-1489h-71v1427h-940v-1427h-70z" />
    <glyph glyph-name="afii10034" unicode="&#x420;" horiz-adv-x="1189" 
d="M575 1489q535 1 535 -383q0 -194 -111 -305q-67 -69 -165 -91t-265 -22h-329v-688h-70v1489h405zM524 1425h-284v-675h282q258 0 341 36t129 120q46 83 46 196q0 188 -149 270q-97 53 -365 53z" />
    <glyph glyph-name="afii10035" unicode="&#x421;" horiz-adv-x="1406" 
d="M104 744q0 368 168 573t463 205q227 0 383 -129t176 -336h-69q-33 189 -164 295t-338 106q-247 0 -397 -190t-150 -526t144 -523q144 -188 382 -188t377 124t152 339h67q-14 -242 -170 -383t-405 -142q-291 0 -455 204q-164 203 -164 571z" />
    <glyph glyph-name="afii10036" unicode="&#x422;" horiz-adv-x="1054" 
d="M498 0v1423h-471v66h1003v-66h-463v-1423h-69z" />
    <glyph glyph-name="afii10037" unicode="&#x423;" horiz-adv-x="1097" 
d="M346 -35q-4 0 -78 8v64q123 -26 182 25q38 34 74 116l33 86l-555 1225h80l510 -1155l422 1155h80l-514 -1344q-40 -98 -94 -139t-140 -41z" />
    <glyph glyph-name="afii10038" unicode="&#x424;" horiz-adv-x="1695" 
d="M881 1292v-1038q303 0 482 129t179 392t-185 390t-476 127zM811 254v1038q-291 0 -476 -127t-185 -390t179 -392t482 -129zM811 0v190q-313 0 -516 137q-103 69 -161 183t-58 266q0 276 194 427q195 151 541 151v168h70v-168q347 0 541 -151t194 -427q0 -152 -58 -266
q-107 -211 -394 -286q-130 -34 -283 -34v-190h-70z" />
    <glyph glyph-name="afii10039" unicode="&#x425;" horiz-adv-x="1097" 
d="M2 0l506 762l-483 727h81l443 -670l440 670h78l-477 -725l506 -764h-80l-471 702l-465 -702h-78z" />
    <glyph glyph-name="afii10040" unicode="&#x426;" horiz-adv-x="1419" 
d="M170 0v1487h70v-1424h942v1424h67v-1424h119v-423h-65v360h-1133z" />
    <glyph glyph-name="afii10041" unicode="&#x427;" horiz-adv-x="1271" 
d="M1047 0v735q-188 -61 -400 -61t-359 95t-147 335v385h68v-379q0 -375 459 -375q213 0 379 72v682h67v-1489h-67z" />
    <glyph glyph-name="afii10042" unicode="&#x428;" horiz-adv-x="2015" 
d="M1843 1489v-1489h-1673v1489h72v-1426h729v1426h69v-1426h732v1426h71z" />
    <glyph glyph-name="afii10043" unicode="&#x429;" horiz-adv-x="2027" 
d="M1960 66v-424h-66v358h-1724v1489h72v-1426h729v1426h69v-1426h732v1426h71v-1423h117z" />
    <glyph glyph-name="afii10044" unicode="&#x42a;" horiz-adv-x="1339" 
d="M725 0h-449v1425h-346v64h418v-688h371q166 0 264 -23t166 -90q111 -110 111 -304q0 -384 -535 -384zM674 63q268 0 364 54q150 82 150 270q0 113 -46 196t-129 119t-341 37h-324v-676h326z" />
    <glyph glyph-name="afii10045" unicode="&#x42b;" horiz-adv-x="1662" 
d="M1421 0v1489h68v-1489h-68zM184 0v1489h70v-688h371q166 0 263 -22t167 -91q113 -118 113 -308q-1 -380 -537 -380h-447zM582 63q266 0 364 54q147 82 148 270q0 113 -46 196t-129 119t-339 37h-326v-676h328z" />
    <glyph glyph-name="afii10046" unicode="&#x42c;" horiz-adv-x="1255" 
d="M641 0h-446v1489h69v-688h371q166 0 264 -23t166 -90q111 -110 111 -304t-132 -289t-403 -95zM592 63q266 0 362 54q150 82 150 270q0 113 -46 196t-129 119t-339 37h-326v-676h328z" />
    <glyph glyph-name="afii10047" unicode="&#x42d;" horiz-adv-x="1406" 
d="M504 764v61h717q-21 299 -167 466t-364 167t-350 -105q-131 -105 -164 -296h-70q20 207 176 336t384 129q294 0 462 -205t168 -573t-164 -572t-454 -203q-250 -1 -406 141t-170 384h68q12 -215 152 -339t378 -124q240 1 385 195t140 538h-721z" />
    <glyph glyph-name="afii10048" unicode="&#x42e;" horiz-adv-x="2052" 
d="M698 743q0 -334 156 -523t430 -189t431 189t157 523q0 335 -157 525t-431 190t-430 -190t-156 -525zM1293 1522q298 0 474 -208q177 -208 177 -570t-176 -570q-176 -207 -484 -207q-307 0 -482 207t-175 569v21h-373v-764h-70v1489h70v-664h373q20 329 194 513t472 184z
" />
    <glyph glyph-name="afii10049" unicode="&#x42f;" horiz-adv-x="1189" 
d="M592 1489h405v-1489h-69v688h-443l-356 -688h-82l367 696q-356 55 -357 400q0 203 132 298q133 95 403 95zM928 1425h-332q-221 1 -344 -69t-123 -262t111 -268q111 -77 313 -76h375v675z" />
    <glyph glyph-name="afii10065" unicode="&#x430;" horiz-adv-x="1048" 
d="M139 287q0 -121 70 -186t201 -64q182 0 307 104q66 57 86 126t20 188v157q-25 -35 -258 -62t-330 -85q-96 -57 -96 -178zM823 813q-1 225 -299 225q-152 0 -244 -70t-100 -196h-61q6 150 115 238q110 88 294 88q229 0 314 -125q47 -70 47 -221v-523q0 -106 15 -138
t79 -32h39v-59h-57q-80 0 -111 40t-31 140q-63 -98 -175 -153t-256 -55t-232 83q-88 84 -88 225t110 220t404 109q140 14 182 31t49 39q6 21 6 44v90z" />
    <glyph glyph-name="afii10066" unicode="&#x431;" horiz-adv-x="1052" 
d="M543 33q180 0 291 133q110 134 110 358t-110 348t-272 123q-162 0 -290 -102q-63 -51 -102 -144t-39 -214q0 -246 116 -374t296 -128zM543 -27q-211 -1 -344 147t-133 435q0 422 112 598t367 221q45 8 103 16t115 15q57 8 76 30q19 23 25 52h60q-23 -87 -82 -110
q-25 -9 -41 -16t-67 -13q-52 -7 -101 -14t-78 -11q-207 -31 -307 -164t-123 -387h18q21 66 75 132t148 106q94 39 187 39q207 -1 332 -139t125 -388t-128 -399q-128 -150 -339 -150z" />
    <glyph glyph-name="afii10067" unicode="&#x432;" horiz-adv-x="960" 
d="M188 1016v-420h265q141 0 228 52t87 154t-77 158t-228 56h-275zM188 59h342q293 0 293 242q0 80 -62 136q-113 102 -308 102h-265v-480zM125 1075h367q158 1 250 -65t94 -197q0 -211 -248 -248q133 -14 218 -87q85 -74 85 -194t-92 -202t-238 -82h-436v1075z" />
    <glyph glyph-name="afii10068" unicode="&#x433;" horiz-adv-x="882" 
d="M141 0v1075h731v-59h-663v-1016h-68z" />
    <glyph glyph-name="afii10069" unicode="&#x434;" horiz-adv-x="1085" 
d="M881 1020h-555v-422q0 -375 -133 -541h688v963zM31 57h94q135 180 135 541v477h686v-1018h115v-331h-66v274h-899v-276h-65v333z" />
    <glyph glyph-name="afii10070" unicode="&#x435;" horiz-adv-x="1044" 
d="M926 592q0 207 -102 328q-102 120 -270 120q-166 0 -274 -118t-120 -330h766zM90 537q0 263 124 413t332 150t328 -139t121 -390v-39h-837v-16q0 -221 108 -352t279 -131q133 0 231 76t135 208h64q-35 -155 -153 -249t-277 -95q-207 0 -331 151t-124 413z" />
    <glyph glyph-name="afii10072" unicode="&#x436;" horiz-adv-x="1464" 
d="M700 0v387l-231 242l-418 -629h-74l447 676l-381 399h80l577 -612v612h62v-612l577 612h80l-381 -399l447 -676h-74l-418 629l-231 -242v-387h-62z" />
    <glyph glyph-name="afii10073" unicode="&#x437;" horiz-adv-x="960" 
d="M483 592q297 0 297 227q0 93 -80 157t-204 64t-203 -60q-80 -60 -107 -177h-65q25 133 121 215t257 82t255 -81t94 -191t-56 -180q-56 -69 -143 -87q106 -25 174 -99t68 -194t-113 -208q-112 -88 -288 -87q-176 -1 -282 91t-124 258h66q6 -135 99 -212t238 -77t241 68
q95 69 95 186t-105 183t-269 65h-89v57h123z" />
    <glyph glyph-name="afii10074" unicode="&#x438;" horiz-adv-x="1112" 
d="M143 0v1075h66v-969l698 969h66v-1075h-66v967l-698 -967h-66z" />
    <glyph glyph-name="afii10075" unicode="&#x439;" horiz-adv-x="1110" 
d="M565 1272q207 0 226 215h61q-2 -127 -75 -201t-212 -74t-212 74t-74 201h61q18 -215 225 -215zM141 0v1075h66v-969l698 969h66v-1075h-66v967l-698 -967h-66z" />
    <glyph glyph-name="afii10076" unicode="&#x43a;" horiz-adv-x="948" 
d="M143 0v1075h66v-618l625 618h81l-399 -391l459 -684h-82l-424 635l-260 -258v-377h-66z" />
    <glyph glyph-name="afii10077" unicode="&#x43b;" horiz-adv-x="1073" 
d="M291 1014v-461q0 -332 -52 -453q-22 -49 -64 -83t-99 -31h-64v59h51q107 0 137 160q25 133 25 348v520h705v-1073h-66v1014h-573z" />
    <glyph glyph-name="afii10078" unicode="&#x43c;" horiz-adv-x="1361" 
d="M1223 1075v-1075h-66v954l-442 -917h-64l-442 917v-954h-66v1075h68l473 -969l471 969h68z" />
    <glyph glyph-name="afii10079" unicode="&#x43d;" 
d="M143 0v1075h66v-489h665v489h66v-1075h-66v528h-665v-528h-66z" />
    <glyph glyph-name="afii10080" unicode="&#x43e;" horiz-adv-x="1128" 
d="M158 537q0 -238 110 -371t295 -133q186 0 297 133t111 371q0 239 -111 371t-297 132q-185 0 -295 -132t-110 -371zM92 537q0 263 127 413t344 150t345 -151t128 -413t-128 -412q-128 -151 -345 -151t-344 151t-127 413z" />
    <glyph glyph-name="afii10081" unicode="&#x43f;" 
d="M143 0v1075h797v-1075h-66v1016h-665v-1016h-66z" />
    <glyph glyph-name="afii10082" unicode="&#x440;" horiz-adv-x="1183" 
d="M614 1040q-186 0 -296 -134t-109 -370q-1 -237 109 -370t296 -133t297 133t111 370q0 236 -111 370t-297 134zM143 -426v1501h66v-246q104 270 405 271q218 0 346 -150t128 -412t-129 -414q-128 -151 -345 -151q-147 0 -252 68q-104 68 -153 195v-662h-66z" />
    <glyph glyph-name="afii10083" unicode="&#x441;" horiz-adv-x="1075" 
d="M92 537q0 263 127 413t344 150q170 0 278 -90t130 -248h-66q-20 129 -113 204t-229 74q-186 0 -296 -133q-109 -133 -109 -371t110 -370q110 -133 295 -133q141 0 240 86q98 86 117 229h61q-18 -174 -133 -274q-114 -100 -308 -100t-321 150q-127 151 -127 413z" />
    <glyph glyph-name="afii10084" unicode="&#x442;" horiz-adv-x="964" 
d="M516 0h-65v1016h-441v59h946v-59h-440v-1016z" />
    <glyph glyph-name="afii10085" unicode="&#x443;" horiz-adv-x="903" 
d="M178 -430h-76v59h78q90 0 139 127l93 236l-400 1083h64l370 -997l371 997h70l-467 -1237q-54 -144 -106 -206t-136 -62z" />
    <glyph glyph-name="afii10086" unicode="&#x444;" horiz-adv-x="1837" 
d="M518 1038q-168 0 -268 -134t-100 -370t100 -371q100 -134 268 -134q121 0 213 63t124 174t32 285t-31 254q-88 233 -338 233zM1321 1038q-250 0 -338 -233q-31 -80 -31 -254t32 -285t124 -174t213 -63q168 0 268 134q101 134 101 371q0 236 -100 370t-269 134zM952 1485
v-633q50 118 146 182t223 64q197 0 315 -152t119 -412q0 -260 -119 -413q-119 -152 -315 -152q-127 0 -222 65t-147 181v-643h-65v643q-51 -117 -147 -181t-222 -65q-198 0 -316 152t-118 413q0 260 119 412t315 152q127 0 222 -65t147 -181v633h65z" />
    <glyph glyph-name="afii10087" unicode="&#x445;" horiz-adv-x="847" 
d="M66 0h-76l393 555l-377 520h78l340 -467l332 467h75l-370 -520l397 -555h-76l-360 504z" />
    <glyph glyph-name="afii10088" unicode="&#x446;" horiz-adv-x="1085" 
d="M143 0v1075h66v-1016h663v1016h66v-1016h117v-338h-66v279h-846z" />
    <glyph glyph-name="afii10089" unicode="&#x447;" horiz-adv-x="1028" 
d="M885 1075v-1075h-66v526q-113 -86 -301 -86q-377 0 -377 381v254h66v-254q0 -161 72 -241t229 -80t228 41q26 14 83 53v481h66z" />
    <glyph glyph-name="afii10090" unicode="&#x448;" horiz-adv-x="1583" 
d="M1372 1077h66v-1077h-1295v1077h66v-1018h549v1018h65v-1018h549v1018z" />
    <glyph glyph-name="afii10091" unicode="&#x449;" horiz-adv-x="1583" 
d="M1372 1075h66v-1016h114v-338h-65v279h-1344v1075h66v-1016h549v1016h65v-1016h549v1016z" />
    <glyph glyph-name="afii10092" unicode="&#x44a;" horiz-adv-x="1034" 
d="M287 537v-478h319q131 1 210 63t79 184t-87 176t-282 55h-239zM549 594q217 0 315 -71t98 -214t-92 -226q-94 -83 -239 -83h-410v1016h-227v59h293v-481h262z" />
    <glyph glyph-name="afii10093" unicode="&#x44b;" horiz-adv-x="1304" 
d="M193 537v-478h319q131 1 210 63t79 183t-86 176t-275 56h-247zM455 594q217 0 315 -71t98 -214t-93 -226t-238 -83h-410v1075h66v-481h262zM1106 0v1075h65v-1075h-65z" />
    <glyph glyph-name="afii10094" unicode="&#x44c;" horiz-adv-x="940" 
d="M193 537v-478h319q131 1 210 63t79 183t-86 176t-275 56h-247zM455 594q217 0 315 -71t98 -214t-93 -226t-238 -83h-410v1075h66v-481h262z" />
    <glyph glyph-name="afii10095" unicode="&#x44d;" horiz-adv-x="1075" 
d="M399 588h516q-14 211 -119 331t-278 119q-137 0 -233 -76t-117 -202h-66q20 158 132 248t284 90q217 0 340 -150t123 -412t-127 -414q-127 -151 -338 -151q-176 1 -291 101t-133 274h62q18 -143 116 -229t240 -86q184 0 294 132t111 367h-516v58z" />
    <glyph glyph-name="afii10096" unicode="&#x44e;" horiz-adv-x="1478" 
d="M915 1040q-187 0 -297 -135t-110 -372t110 -369t297 -131q186 0 297 133t111 371q0 239 -111 371t-297 132zM133 0v1075h66v-485h245q16 238 142 374t336 136t338 -151t129 -413q0 -262 -128 -412q-127 -151 -345 -151t-346 150t-128 409h-243v-532h-66z" />
    <glyph glyph-name="afii10097" unicode="&#x44f;" horiz-adv-x="940" 
d="M737 541v477h-321q-135 0 -212 -60t-77 -174q0 -112 93 -178t274 -65h243zM737 483h-301l-323 -483h-74l328 492q-154 16 -231 95t-77 195q1 152 101 223t258 70h385v-1075h-66v483z" />
    <glyph glyph-name="afii10071" unicode="&#x451;" horiz-adv-x="1083" 
d="M664 1294v115h94v-115h-94zM344 1294v115h92v-115h-92zM926 590q0 204 -104 326t-269 122t-273 -120t-120 -328h766zM90 534q0 260 124 411t332 151t328 -140t121 -389v-39h-837v-16q0 -219 108 -351t279 -132q133 -1 231 75t135 209h64q-35 -157 -153 -249t-277 -93
q-207 0 -331 151q-124 152 -124 412z" />
    <glyph glyph-name="afii10099" unicode="&#x452;" horiz-adv-x="1099" 
d="M164 0v1249h-115v62h115v178h65v-178h359v-62h-359v-350q106 199 363 199q369 0 369 -385v-877q0 -152 -36 -207t-157 -55h-39v64h25q98 0 120 42t21 179v833q0 180 -70 262q-69 82 -241 82t-267 -106q-57 -64 -72 -142t-16 -213v-575h-65z" />
    <glyph glyph-name="afii10100" unicode="&#x453;" horiz-adv-x="882" 
d="M455 1128l147 185h113l-195 -185h-65zM141 0v1075h731v-59h-663v-1016h-68z" />
    <glyph glyph-name="afii10101" unicode="&#x454;" horiz-adv-x="1075" 
d="M674 588v-58h-516q2 -236 112 -368t293 -131q141 0 240 86q98 86 117 229h61q-18 -174 -133 -274q-114 -100 -308 -100t-321 150q-127 151 -127 413q0 263 127 413t344 150q170 0 278 -90t130 -248h-66q-20 129 -113 204t-229 74q-175 0 -283 -120t-122 -330h516z" />
    <glyph glyph-name="afii10102" unicode="&#x455;" horiz-adv-x="993" 
d="M510 35q143 1 230 67t87 177q0 78 -52 128t-161 78q-184 45 -219 58q-127 41 -195 101t-69 176q0 116 101 197q102 81 262 81t257 -83t111 -227h-65q-35 250 -305 250q-131 0 -211 -61t-80 -151t50 -137q50 -46 159 -79q271 -75 338 -106q147 -68 147 -228
q0 -131 -108 -218q-109 -87 -281 -87t-281 92t-125 256h66q55 -284 344 -284z" />
    <glyph glyph-name="afii10103" unicode="&#x456;" horiz-adv-x="362" 
d="M150 0v1075h63v-1075h-63zM150 1313v174h63v-174h-63z" />
    <glyph glyph-name="afii10104" unicode="&#x457;" horiz-adv-x="362" 
d="M256 1315v174h66v-174h-66zM39 1315v174h65v-174h-65zM147 0v1075h66v-1075h-66z" />
    <glyph glyph-name="afii10105" unicode="&#x458;" horiz-adv-x="360" 
d="M150 1313v174h65v-174h-65zM150 1075h65v-1241q0 -152 -36 -207t-156 -55h-39v63h24q98 0 120 42t22 180v1218z" />
    <glyph glyph-name="afii10106" unicode="&#x459;" horiz-adv-x="1673" 
d="M930 537v-478h319q131 1 210 63t79 183t-86 176t-274 56h-248zM291 1014v-461q0 -332 -52 -453q-22 -49 -64 -83q-61 -49 -163 -25v59q20 -6 62 -6t77 40q74 87 74 468v520h705v-479h262q217 0 315 -71q99 -71 99 -214t-94 -226t-238 -83h-410v1014h-573z" />
    <glyph glyph-name="afii10107" unicode="&#x45a;" horiz-adv-x="1681" 
d="M1188 528h-248v-469h320q132 1 210 63t78 183t-85 172t-275 51zM940 586h262q218 0 316 -68t98 -210t-93 -225t-239 -83h-410v528h-665v-528h-66v1075h66v-489h665v489h66v-489z" />
    <glyph glyph-name="afii10108" unicode="&#x45b;" horiz-adv-x="1099" 
d="M164 0v1249h-115v62h115v176h65v-176h359v-62h-359v-350q106 199 363 199q369 0 369 -385v-713h-66v692q0 180 -70 262q-69 82 -241 82t-267 -106q-57 -64 -72 -142t-16 -213v-575h-65z" />
    <glyph glyph-name="afii10109" unicode="&#x45c;" horiz-adv-x="948" 
d="M416 1124l147 185h113l-195 -185h-65zM143 0v1073h66v-610l618 610h80l-389 -389l453 -684h-74l-424 637l-264 -254v-383h-66z" />
    <glyph glyph-name="afii10110" unicode="&#x45e;" horiz-adv-x="903" 
d="M475 1268q207 0 225 215h62q-4 -275 -287 -275t-287 275h62q18 -215 225 -215zM178 -430h-76v76q43 -12 78 -13q92 0 139 123l93 242l-400 1077h64l370 -997l371 997h70l-467 -1237q-54 -144 -106 -206t-136 -62z" />
    <glyph glyph-name="afii10193" unicode="&#x45f;" horiz-adv-x="1077" 
d="M143 0v1075h66v-1016h663v1016h66v-1075h-363v-274h-65v274h-367z" />
    <glyph glyph-name="afii10050" unicode="&#x490;" horiz-adv-x="1052" 
d="M172 1489h793v352h65v-420h-788v-1421h-70v1489z" />
    <glyph glyph-name="afii10098" unicode="&#x491;" horiz-adv-x="882" 
d="M141 0v1075h672v236h59v-295h-663v-1016h-68z" />
    <glyph glyph-name="uni0492" unicode="&#x492;" horiz-adv-x="1081" 
d="M170 0v743h-170v64h170v682h868v-68h-798v-614h542v-64h-542v-743h-70z" />
    <glyph glyph-name="uni0493" unicode="&#x493;" horiz-adv-x="882" 
d="M0 528v58h141v489h731v-59h-663v-430h430v-58h-430v-528h-68v528h-141z" />
    <glyph glyph-name="uni049a" unicode="&#x49a;" horiz-adv-x="1361" 
d="M168 0v1489h72v-838l825 838h88l-588 -596l629 -830h90v-423h-65v360h-60l-639 844l-280 -285v-559h-72z" />
    <glyph glyph-name="uni049b" unicode="&#x49b;" horiz-adv-x="1077" 
d="M143 0v1075h66v-618l625 618h81l-399 -391l418 -625h100v-338h-65v279h-76l-424 635l-260 -258v-377h-66z" />
    <glyph glyph-name="uni04a2" unicode="&#x4a2;" horiz-adv-x="1417" 
d="M1303 0h-123v764h-942v-764h-70v1489h70v-664h942v664h69v-1426h119v-423h-65v360z" />
    <glyph glyph-name="uni04a3" unicode="&#x4a3;" 
d="M143 0v1075h66v-489h665v489h66v-1016h115v-338h-66v279h-115v528h-665v-528h-66z" />
    <glyph glyph-name="uni04b0" unicode="&#x4ae;" horiz-adv-x="1097" 
d="M514 0v659l-512 830h80l469 -760l463 760h80l-512 -834v-655h-68z" />
    <glyph glyph-name="uni04af" unicode="&#x4af;" horiz-adv-x="903" 
d="M475 -426h-67v426l-398 1075h64l370 -997l371 997h70l-410 -1075v-426z" />
    <glyph glyph-name="uni04ae" unicode="&#x4b0;" horiz-adv-x="1097" 
d="M225 532v62h289v65l-512 830h80l469 -760l463 760h80l-512 -834v-61h288v-62h-288v-532h-68v532h-289z" />
    <glyph glyph-name="uni04b1" unicode="&#x4b1;" horiz-adv-x="903" 
d="M121 -57v57h287l-398 1075h64l370 -997l371 997h70l-410 -1075h287v-57h-287v-369h-67v369h-287z" />
    <glyph glyph-name="uni04ba" unicode="&#x4ba;" horiz-adv-x="1271" 
d="M207 1487v-735q188 61 400 61t350 -90q155 -100 155 -340v-385h-68v379q0 375 -458 375q-213 0 -379 -72v-682h-68v1489h68z" />
    <glyph glyph-name="uni04bb" unicode="&#x4bb;" 
d="M143 0v1489h66v-590q106 201 362 201q369 0 369 -387v-713h-66v692q0 180 -70 264q-71 84 -240 84t-267 -110q-57 -64 -73 -142t-15 -213v-575h-66z" />
    <glyph glyph-name="uni018f" unicode="&#x4d8;" horiz-adv-x="1533" 
d="M766 31q262 0 418 175t168 486h-1172q12 -311 168 -486t418 -175zM109 743v11h1245q-2 330 -160 517t-428 187q-403 0 -528 -409h-74q63 227 217 350t385 123q307 0 483 -208t176 -570t-176 -570q-176 -207 -483 -207t-482 207t-175 569z" />
    <glyph glyph-name="uni0259" unicode="&#x4d9;" horiz-adv-x="1044" 
d="M160 481q0 -207 102 -327t269 -121q167 1 275 119t120 329h-766zM541 1100q207 0 331 -151t123 -413q0 -262 -124 -412q-123 -151 -331 -151q-208 -1 -329 139t-121 390v39h838v16q0 221 -109 352t-278 131q-131 0 -220 -74t-126 -210h-64q35 160 143 252q109 92 267 92z
" />
    <glyph glyph-name="uni04e8" unicode="&#x4e8;" horiz-adv-x="1533" 
d="M765 31q267 0 424 179t165 499h-1174q8 -319 163 -499t422 -179zM766 1458q-268 0 -424 -182t-162 -506h1174q-8 322 -164 505t-424 183zM109 743q0 363 176 571t482 208t482 -208t176 -570t-176 -570q-176 -207 -483 -207t-482 207t-175 569z" />
    <glyph glyph-name="uni04e9" unicode="&#x4e9;" horiz-adv-x="1128" 
d="M562 33q181 0 291 125t118 350h-813q6 -225 114 -350t290 -125zM562 1040q-181 0 -290 -126t-114 -349h813q-8 223 -118 349t-291 126zM92 537q0 263 127 413t344 150t345 -151t128 -413t-128 -412q-128 -151 -345 -151t-344 151t-127 413z" />
    <glyph glyph-name="endash" unicode="&#x2013;" horiz-adv-x="1032" 
d="M0 514v45h1032v-45h-1032z" />
    <glyph glyph-name="emdash" unicode="&#x2014;" horiz-adv-x="2068" 
d="M0 557h2068v-45h-2068v45z" />
    <glyph glyph-name="quoteleft" unicode="&#x2018;" horiz-adv-x="489" 
d="M354 1083h-73l-146 404h72z" />
    <glyph glyph-name="quoteright" unicode="&#x2019;" horiz-adv-x="489" 
d="M135 1083l146 404h71l-145 -404h-72z" />
    <glyph glyph-name="quotesinglbase" unicode="&#x201a;" horiz-adv-x="489" 
d="M96 -219l146 403h73l-145 -403h-74z" />
    <glyph glyph-name="quotedblleft" unicode="&#x201c;" horiz-adv-x="788" 
d="M649 1083h-71l-146 404h74zM354 1083h-73l-144 404h70z" />
    <glyph glyph-name="quotedblright" unicode="&#x201d;" horiz-adv-x="788" 
d="M432 1083l148 404h69l-143 -404h-74zM137 1083l144 404h71l-145 -404h-70z" />
    <glyph glyph-name="quotedblbase" unicode="&#x201e;" horiz-adv-x="788" 
d="M395 -211l146 404h69l-143 -404h-72zM98 -211l144 404h73l-145 -404h-72z" />
    <glyph glyph-name="dagger" unicode="&#x2020;" horiz-adv-x="1032" 
d="M483 -217v1204h-405v60h405v440h64v-440h407v-60h-407v-1204h-64z" />
    <glyph glyph-name="daggerdbl" unicode="&#x2021;" 
d="M336 483q0 86 -41 193h-234v59h201q-145 242 -145 357q0 154 116 256q117 102 311 102t304 -116t113 -328h-64q-8 186 -99 283t-251 97t-257 -82t-97 -198t151 -371h295v-59h-268q37 -94 37 -184q0 -201 -191 -390q87 23 143 23t175 -45t181 -45t134 35t123 96l43 -51
q-150 -150 -307 -150q-68 0 -195 46q-128 46 -206 46t-191 -63l-47 61q266 180 266 428z" />
    <glyph glyph-name="bullet" unicode="&#x2022;" horiz-adv-x="1220" 
d="M311 770q0 125 87 211t211 86t211 -86t87 -210t-87 -212t-212 -88t-211 87t-86 212z" />
    <glyph glyph-name="ellipsis" unicode="&#x2026;" horiz-adv-x="2068" 
d="M1683 0v178h66v-178h-66zM993 0v178h66v-178h-66zM305 0v178h66v-178h-66z" />
    <glyph glyph-name="perthousand" unicode="&#x2030;" horiz-adv-x="2308" 
d="M1591 283q0 131 92 223q93 92 225 92t224 -92t92 -223t-92 -223t-223 -93q-131 0 -225 92q-93 93 -93 224zM1655 283q0 -107 75 -181t179 -74t179 76q75 74 75 178t-75 179q-75 74 -179 74t-179 -73t-75 -179zM788 283q0 131 92 223t225 92q132 0 224 -92t92 -223
t-92 -223t-223 -93q-130 1 -224 93t-94 223zM854 280q0 -104 74 -178t178 -74t178 74t74 178t-74 179q-74 73 -179 73t-178 -74t-73 -178zM303 -33l823 1522h74l-829 -1522h-68zM84 1172q0 132 91 224t222 93q131 0 225 -93q94 -92 93 -224q0 -132 -92 -224
q-91 -92 -223 -92t-224 92t-92 224zM147 1170q0 -105 74 -179q74 -73 178 -73t180 73q75 74 75 179t-74 179q-74 73 -180 73t-179 -74q-74 -73 -74 -178z" />
    <glyph glyph-name="guilsinglleft" unicode="&#x2039;" horiz-adv-x="512" 
d="M346 211l-258 328l258 311h84l-252 -311l252 -328h-84z" />
    <glyph glyph-name="guilsinglright" unicode="&#x203a;" horiz-adv-x="512" 
d="M80 211l254 309l-254 330h86l258 -330l-258 -309h-86z" />
    <glyph glyph-name="afii61352" unicode="&#x2116;" horiz-adv-x="2099" 
d="M1384 342v37h611v-37h-611zM1692 1270q-138 0 -222 -93t-84 -258t83 -259t223 -95q140 0 222 94q83 93 83 259t-83 259t-222 93zM1337 920q-1 184 95 288t260 104t260 -104q96 -106 96 -289t-96 -289t-260 -106t-260 106t-95 290zM168 0v1489h72l931 -1370v1370h70v-1489
h-70l-933 1368v-1368h-70z" />
    <glyph glyph-name="trademark" unicode="&#x2122;" horiz-adv-x="1722" 
d="M836 1466h88l182 -458l170 458h88v-530h-49v494l-187 -494h-45l-198 494v-494h-49v530zM287 1466h413v-41h-174v-489h-59v489h-180v41z" />
    <glyph glyph-name="hyphenminus" horiz-adv-x="798" 
d="M143 647h512v-45h-512v45z" />
    <glyph glyph-name="afii10055" horiz-adv-x="428" 
d="M180 0v1489h68v-1489h-68z" />
    </font>
</defs>
</svg>
